<svg width="60" height="60" viewBox="0 0 60 60" fill="none" xmlns="http://www.w3.org/2000/svg">
<path d="M13.6237 59.9997C17.2624 59.9997 20.6837 58.5822 23.2574 56.0098L34.7586 44.5086C37.3323 41.9348 38.7498 38.5136 38.7498 34.8736C38.7498 28.8424 34.8774 23.6061 29.1149 21.8437L28.3849 24.2336C33.0899 25.6736 36.2498 29.9486 36.2498 34.8736C36.2498 37.8448 35.0924 40.6386 32.9924 42.7398L21.4912 54.241C19.3899 56.3423 16.5949 57.4997 13.6237 57.4997C7.48997 57.4997 2.49999 52.5098 2.49999 46.376C2.49999 43.4048 3.65748 40.6111 5.75748 38.5098L17.2587 27.0086C17.6224 26.6449 18.0137 26.3049 18.4212 25.9974L16.9149 24.0011C16.4174 24.3774 15.9374 24.7936 15.4912 25.2399L3.98998 36.7411C1.41749 39.3148 0 42.7361 0 46.376C0 53.8873 6.11247 59.9997 13.6237 59.9997Z" fill="white"/>
<path d="M46.3761 1.66893e-06C42.7374 1.66893e-06 39.3162 1.4175 36.7424 3.98998L25.2412 15.4912C22.6675 18.0649 21.25 21.4862 21.25 25.1261C21.25 31.6361 25.8812 37.2598 32.2625 38.4998L32.7387 36.0461C27.5312 35.0336 23.7512 30.4424 23.7512 25.1261C23.7512 22.1549 24.9087 19.3612 27.0087 17.2599L38.5099 5.75873C40.6099 3.65749 43.4049 2.49999 46.3761 2.49999C52.5099 2.49999 57.4998 7.48997 57.4998 13.6237C57.4998 16.5949 56.3424 19.3887 54.2424 21.4899L42.7424 32.9911C42.4187 33.3136 42.0799 33.6149 41.7312 33.8861L43.2687 35.8561C43.6962 35.5224 44.1137 35.1536 44.5074 34.7599L56.0086 23.2587C58.5823 20.6849 59.9998 17.2637 59.9998 13.6237C59.9998 6.11248 53.8874 1.66893e-06 46.3761 1.66893e-06Z" fill="white"/>
<path d="M2.85298 16L3.81321 13.1307H8.18821L9.15412 16H11.4041L7.30185 4.36364H4.69957L0.602983 16H2.85298ZM4.38139 11.4375L5.95526 6.75H6.04616L7.62003 11.4375H4.38139Z" fill="white"/>
<path d="M50.2337 55H52.3416V51.5341L53.6314 50.0114L57.103 55H59.6371L55.0973 48.5852L59.5973 43.3636H57.0234L52.4837 48.7102H52.3416V43.3636H50.2337V55Z" fill="white"/>
</svg>
