<svg width="50" height="48" viewBox="0 0 50 48" fill="none" xmlns="http://www.w3.org/2000/svg">
<path d="M11.899 47.9998C14.8099 47.9998 17.5469 46.8658 19.6059 44.8078L28.8069 35.6068C30.8659 33.5479 31.9999 30.8109 31.9999 27.8989C31.9999 23.0739 28.9019 18.8849 24.2919 17.4749L23.7079 19.3869C27.4719 20.5389 29.9999 23.9589 29.9999 27.8989C29.9999 30.2759 29.0739 32.5109 27.3939 34.1919L18.1929 43.3928C16.5119 45.0738 14.2759 45.9998 11.899 45.9998C6.99197 45.9998 2.99999 42.0078 2.99999 37.1008C2.99999 34.7238 3.92599 32.4889 5.60598 30.8079L14.8069 21.6069C15.0979 21.3159 15.4109 21.0439 15.7369 20.7979L14.5319 19.2009C14.1339 19.5019 13.7499 19.8349 13.3929 20.1919L4.19199 29.3929C2.134 31.4519 1 34.1889 1 37.1008C1 43.1098 5.88998 47.9998 11.899 47.9998Z" fill="black"/>
<path d="M38.1009 0C35.1899 0 32.4529 1.134 30.3939 3.19199L21.193 12.3929C19.134 14.4519 18 17.1889 18 20.1009C18 25.3089 21.705 29.8079 26.81 30.7999L27.191 28.8369C23.025 28.0269 20.001 24.3539 20.001 20.1009C20.001 17.7239 20.927 15.4889 22.607 13.8079L31.8079 4.60698C33.4879 2.92599 35.7239 1.99999 38.1009 1.99999C43.0079 1.99999 46.9999 5.99197 46.9999 10.899C46.9999 13.2759 46.0739 15.5109 44.3939 17.1919L35.1939 26.3929C34.9349 26.6509 34.6639 26.8919 34.3849 27.1089L35.6149 28.6849C35.9569 28.4179 36.2909 28.1229 36.6059 27.8079L45.8069 18.6069C47.8659 16.5479 48.9999 13.8109 48.9999 10.899C48.9999 4.88998 44.1099 0 38.1009 0Z" fill="black"/>
<path d="M2.65298 14L3.61321 11.1307H7.98821L8.95412 14H11.2041L7.10185 2.36364H4.49957L0.402983 14H2.65298ZM4.18139 9.4375L5.75526 4.75H5.84617L7.42003 9.4375H4.18139Z" fill="black"/>
<path d="M40.3336 45.2H42.4416V41.7341L43.7313 40.2114L47.2029 45.2H49.737L45.1973 38.7852L49.6973 33.5636H47.1234L42.5836 38.9102H42.4416V33.5636H40.3336V45.2Z" fill="black"/>
</svg>
